<svg width="35" height="20" viewBox="0 0 35 20" fill="none" xmlns="http://www.w3.org/2000/svg">
<g clip-path="url(#clip0_1365_1310)">
<rect y="0.000244141" width="35" height="20" rx="3.75" fill="white"/>
<path d="M25 3.75024H10C9.66848 3.75024 9.35054 3.88194 9.11612 4.11636C8.8817 4.35078 8.75 4.66872 8.75 5.00024V15.0002C8.75 15.3318 8.8817 15.6497 9.11612 15.8841C9.35054 16.1185 9.66848 16.2502 10 16.2502H25C25.3315 16.2502 25.6495 16.1185 25.8839 15.8841C26.1183 15.6497 26.25 15.3318 26.25 15.0002V5.00024C26.25 4.66872 26.1183 4.35078 25.8839 4.11636C25.6495 3.88194 25.3315 3.75024 25 3.75024ZM25 5.00024V6.87524H10V5.00024H25ZM25 15.0002H10V8.12524H25V15.0002ZM23.75 13.1252C23.75 13.291 23.6842 13.45 23.5669 13.5672C23.4497 13.6844 23.2908 13.7502 23.125 13.7502H20.625C20.4592 13.7502 20.3003 13.6844 20.1831 13.5672C20.0658 13.45 20 13.291 20 13.1252C20 12.9595 20.0658 12.8005 20.1831 12.6833C20.3003 12.5661 20.4592 12.5002 20.625 12.5002H23.125C23.2908 12.5002 23.4497 12.5661 23.5669 12.6833C23.6842 12.8005 23.75 12.9595 23.75 13.1252ZM18.75 13.1252C18.75 13.291 18.6842 13.45 18.5669 13.5672C18.4497 13.6844 18.2908 13.7502 18.125 13.7502H16.875C16.7092 13.7502 16.5503 13.6844 16.4331 13.5672C16.3158 13.45 16.25 13.291 16.25 13.1252C16.25 12.9595 16.3158 12.8005 16.4331 12.6833C16.5503 12.5661 16.7092 12.5002 16.875 12.5002H18.125C18.2908 12.5002 18.4497 12.5661 18.5669 12.6833C18.6842 12.8005 18.75 12.9595 18.75 13.1252Z" fill="#60646C"/>
</g>
<rect x="0.3125" y="0.312744" width="34.375" height="19.375" rx="3.4375" stroke="#DDDDE3" stroke-width="0.625"/>
<defs>
<clipPath id="clip0_1365_1310">
<rect y="0.000244141" width="35" height="20" rx="3.75" fill="white"/>
</clipPath>
</defs>
</svg>
