<svg width="16" height="18" viewBox="0 0 16 18" fill="none" xmlns="http://www.w3.org/2000/svg">
<path d="M14.2954 6.25H11.7954V4.375C11.7954 3.38044 11.4003 2.42661 10.6971 1.72335C9.9938 1.02009 9.03997 0.625 8.04541 0.625C7.05085 0.625 6.09702 1.02009 5.39376 1.72335C4.6905 2.42661 4.29541 3.38044 4.29541 4.375V6.25H1.79541C1.46389 6.25 1.14595 6.3817 0.911527 6.61612C0.677106 6.85054 0.54541 7.16848 0.54541 7.5V16.25C0.54541 16.5815 0.677106 16.8995 0.911527 17.1339C1.14595 17.3683 1.46389 17.5 1.79541 17.5H14.2954C14.6269 17.5 14.9449 17.3683 15.1793 17.1339C15.4137 16.8995 15.5454 16.5815 15.5454 16.25V7.5C15.5454 7.16848 15.4137 6.85054 15.1793 6.61612C14.9449 6.3817 14.6269 6.25 14.2954 6.25ZM8.04541 12.8125C7.85999 12.8125 7.67873 12.7575 7.52456 12.6545C7.37039 12.5515 7.25023 12.4051 7.17927 12.2338C7.10832 12.0625 7.08975 11.874 7.12592 11.6921C7.1621 11.5102 7.25139 11.3432 7.3825 11.2121C7.51361 11.081 7.68066 10.9917 7.86251 10.9555C8.04437 10.9193 8.23287 10.9379 8.40418 11.0089C8.57548 11.0798 8.7219 11.2 8.82491 11.3542C8.92793 11.5083 8.98291 11.6896 8.98291 11.875C8.98291 12.1236 8.88414 12.3621 8.70832 12.5379C8.53251 12.7137 8.29405 12.8125 8.04541 12.8125ZM10.5454 6.25H5.54541V4.375C5.54541 3.71196 5.8088 3.07607 6.27764 2.60723C6.74648 2.13839 7.38237 1.875 8.04541 1.875C8.70845 1.875 9.34434 2.13839 9.81318 2.60723C10.282 3.07607 10.5454 3.71196 10.5454 4.375V6.25Z" fill="#7E808A"/>
</svg>
