<svg width="17" height="18" viewBox="0 0 17 18" fill="none" xmlns="http://www.w3.org/2000/svg">
<path d="M9.48291 13.0625C9.48291 13.2479 9.42793 13.4292 9.32492 13.5833C9.2219 13.7375 9.07548 13.8577 8.90418 13.9286C8.73287 13.9996 8.54437 14.0182 8.36252 13.982C8.18066 13.9458 8.01361 13.8565 7.8825 13.7254C7.75139 13.5943 7.6621 13.4273 7.62593 13.2454C7.58975 13.0635 7.60832 12.875 7.67928 12.7037C7.75023 12.5324 7.8704 12.386 8.02457 12.283C8.17874 12.18 8.35999 12.125 8.54541 12.125C8.79405 12.125 9.03251 12.2238 9.20833 12.3996C9.38414 12.5754 9.48291 12.8139 9.48291 13.0625ZM8.54541 4.625C6.82198 4.625 5.42041 5.88672 5.42041 7.4375V7.75C5.42041 7.91576 5.48626 8.07473 5.60347 8.19194C5.72068 8.30915 5.87965 8.375 6.04541 8.375C6.21117 8.375 6.37015 8.30915 6.48736 8.19194C6.60457 8.07473 6.67041 7.91576 6.67041 7.75V7.4375C6.67041 6.57812 7.51182 5.875 8.54541 5.875C9.57901 5.875 10.4204 6.57812 10.4204 7.4375C10.4204 8.29688 9.57901 9 8.54541 9C8.37965 9 8.22068 9.06585 8.10347 9.18306C7.98626 9.30027 7.92041 9.45924 7.92041 9.625V10.25C7.92041 10.4158 7.98626 10.5747 8.10347 10.6919C8.22068 10.8092 8.37965 10.875 8.54541 10.875C8.71117 10.875 8.87015 10.8092 8.98736 10.6919C9.10457 10.5747 9.17041 10.4158 9.17041 10.25V10.1938C10.5954 9.93203 11.6704 8.79531 11.6704 7.4375C11.6704 5.88672 10.2689 4.625 8.54541 4.625ZM16.6704 9C16.6704 10.607 16.1939 12.1779 15.3011 13.514C14.4083 14.8502 13.1394 15.8916 11.6547 16.5065C10.1701 17.1215 8.5364 17.2824 6.96031 16.9689C5.38421 16.6554 3.93647 15.8815 2.80017 14.7452C1.66387 13.6089 0.890038 12.1612 0.576533 10.5851C0.263028 9.00901 0.423931 7.37535 1.03889 5.8907C1.65385 4.40605 2.69526 3.1371 4.03141 2.24431C5.36756 1.35152 6.93844 0.875 8.54541 0.875C10.6996 0.877275 12.7649 1.73403 14.2881 3.25727C15.8114 4.78051 16.6681 6.84581 16.6704 9ZM15.4204 9C15.4204 7.64025 15.0172 6.31104 14.2618 5.18045C13.5063 4.04987 12.4326 3.16868 11.1764 2.64833C9.92012 2.12798 8.53779 1.99183 7.20417 2.2571C5.87055 2.52237 4.64554 3.17716 3.68405 4.13864C2.72257 5.10013 2.06779 6.32513 1.80251 7.65875C1.53724 8.99237 1.67339 10.3747 2.19374 11.6309C2.71409 12.8872 3.59528 13.9609 4.72587 14.7164C5.85646 15.4718 7.18567 15.875 8.54541 15.875C10.3681 15.8729 12.1156 15.1479 13.4045 13.8591C14.6934 12.5702 15.4183 10.8227 15.4204 9Z" fill="#1C2024"/>
</svg>
