<svg width="16" height="16" viewBox="0 0 16 16" fill="none" xmlns="http://www.w3.org/2000/svg">
<path d="M8 1.50037C6.71442 1.50037 5.45772 1.88158 4.3888 2.59581C3.31988 3.31004 2.48676 4.3252 1.99479 5.51292C1.50282 6.70064 1.37409 8.00758 1.6249 9.26845C1.8757 10.5293 2.49477 11.6875 3.40381 12.5966C4.31285 13.5056 5.47104 14.1247 6.73192 14.3755C7.99279 14.6263 9.29973 14.4976 10.4874 14.0056C11.6752 13.5136 12.6903 12.6805 13.4046 11.6116C14.1188 10.5427 14.5 9.28594 14.5 8.00037C14.4982 6.27702 13.8128 4.62477 12.5942 3.40618C11.3756 2.18759 9.72335 1.50219 8 1.50037ZM7.75 4.50037C7.89834 4.50037 8.04334 4.54435 8.16668 4.62676C8.29002 4.70917 8.38615 4.82631 8.44291 4.96335C8.49968 5.1004 8.51453 5.2512 8.48559 5.39668C8.45665 5.54217 8.38522 5.67581 8.28033 5.7807C8.17544 5.88559 8.04181 5.95702 7.89632 5.98596C7.75083 6.01489 7.60003 6.00004 7.46299 5.94328C7.32595 5.88651 7.20881 5.79038 7.1264 5.66704C7.04399 5.54371 7 5.3987 7 5.25037C7 5.05145 7.07902 4.86069 7.21967 4.72004C7.36032 4.57938 7.55109 4.50037 7.75 4.50037ZM8.5 11.5004C8.23479 11.5004 7.98043 11.395 7.7929 11.2075C7.60536 11.0199 7.5 10.7656 7.5 10.5004V8.00037C7.36739 8.00037 7.24022 7.94769 7.14645 7.85392C7.05268 7.76015 7 7.63297 7 7.50037C7 7.36776 7.05268 7.24058 7.14645 7.14681C7.24022 7.05304 7.36739 7.00037 7.5 7.00037C7.76522 7.00037 8.01957 7.10572 8.20711 7.29326C8.39465 7.4808 8.5 7.73515 8.5 8.00037V10.5004C8.63261 10.5004 8.75979 10.553 8.85356 10.6468C8.94732 10.7406 9 10.8678 9 11.0004C9 11.133 8.94732 11.2602 8.85356 11.3539C8.75979 11.4477 8.63261 11.5004 8.5 11.5004Z" fill="black"/>
</svg>
