<svg width="14" height="14" viewBox="0 0 14 14" fill="none" xmlns="http://www.w3.org/2000/svg">
<path d="M7 0.500244C5.71442 0.500244 4.45772 0.881463 3.3888 1.59569C2.31988 2.30992 1.48676 3.32508 0.994786 4.5128C0.502816 5.70052 0.374095 7.00745 0.624899 8.26833C0.875703 9.52921 1.49477 10.6874 2.40381 11.5964C3.31285 12.5055 4.47104 13.1245 5.73192 13.3753C6.99279 13.6262 8.29973 13.4974 9.48744 13.0055C10.6752 12.5135 11.6903 11.6804 12.4046 10.6115C13.1188 9.54253 13.5 8.28582 13.5 7.00024C13.4982 5.2769 12.8128 3.62465 11.5942 2.40606C10.3756 1.18747 8.72335 0.502064 7 0.500244ZM7 12.5002C5.91221 12.5002 4.84884 12.1777 3.94437 11.5733C3.0399 10.969 2.33495 10.11 1.91867 9.105C1.50238 8.10001 1.39347 6.99414 1.60568 5.92725C1.8179 4.86035 2.34173 3.88035 3.11092 3.11116C3.8801 2.34197 4.86011 1.81814 5.92701 1.60593C6.9939 1.39371 8.09977 1.50262 9.10476 1.91891C10.1098 2.33519 10.9687 3.04014 11.5731 3.94461C12.1774 4.84908 12.5 5.91245 12.5 7.00024C12.4983 8.45843 11.9184 9.85641 10.8873 10.8875C9.85617 11.9186 8.45819 12.4986 7 12.5002ZM8 10.0002C8 10.1329 7.94732 10.26 7.85356 10.3538C7.75979 10.4476 7.63261 10.5002 7.5 10.5002C7.23479 10.5002 6.98043 10.3949 6.7929 10.2074C6.60536 10.0198 6.5 9.76546 6.5 9.50024V7.00024C6.36739 7.00024 6.24022 6.94757 6.14645 6.8538C6.05268 6.76003 6 6.63285 6 6.50024C6 6.36764 6.05268 6.24046 6.14645 6.14669C6.24022 6.05292 6.36739 6.00024 6.5 6.00024C6.76522 6.00024 7.01957 6.1056 7.20711 6.29314C7.39465 6.48067 7.5 6.73503 7.5 7.00024V9.50024C7.63261 9.50024 7.75979 9.55292 7.85356 9.64669C7.94732 9.74046 8 9.86764 8 10.0002ZM6 4.25024C6 4.10191 6.04399 3.9569 6.1264 3.83357C6.20881 3.71023 6.32595 3.6141 6.46299 3.55733C6.60003 3.50057 6.75083 3.48572 6.89632 3.51466C7.04181 3.54359 7.17544 3.61502 7.28033 3.71991C7.38522 3.8248 7.45665 3.95844 7.48559 4.10393C7.51453 4.24941 7.49968 4.40021 7.44291 4.53726C7.38615 4.6743 7.29002 4.79144 7.16668 4.87385C7.04334 4.95626 6.89834 5.00024 6.75 5.00024C6.55109 5.00024 6.36032 4.92123 6.21967 4.78057C6.07902 4.63992 6 4.44916 6 4.25024Z" fill="#7E808A"/>
</svg>
