<svg width="16" height="14" viewBox="0 0 16 14" fill="none" xmlns="http://www.w3.org/2000/svg">
<path d="M15.5 6.99998C15.5 7.16574 15.4341 7.32471 15.3169 7.44192C15.1997 7.55913 15.0407 7.62498 14.875 7.62498H2.63358L7.19218 12.1828C7.25024 12.2409 7.29631 12.3098 7.32773 12.3857C7.35916 12.4615 7.37534 12.5429 7.37534 12.625C7.37534 12.7071 7.35916 12.7884 7.32773 12.8643C7.29631 12.9402 7.25024 13.0091 7.19218 13.0672C7.13411 13.1252 7.06517 13.1713 6.9893 13.2027C6.91343 13.2342 6.83211 13.2503 6.74999 13.2503C6.66787 13.2503 6.58655 13.2342 6.51068 13.2027C6.43481 13.1713 6.36587 13.1252 6.3078 13.0672L0.682801 7.44217C0.62469 7.38412 0.578591 7.31519 0.547138 7.23932C0.515686 7.16344 0.499496 7.08212 0.499496 6.99998C0.499496 6.91785 0.515686 6.83652 0.547138 6.76064C0.578591 6.68477 0.62469 6.61584 0.682801 6.55779L6.3078 0.932794C6.42508 0.815518 6.58414 0.749634 6.74999 0.749634C6.91584 0.749634 7.0749 0.815518 7.19218 0.932794C7.30945 1.05007 7.37534 1.20913 7.37534 1.37498C7.37534 1.54083 7.30945 1.69989 7.19218 1.81717L2.63358 6.37498H14.875C15.0407 6.37498 15.1997 6.44083 15.3169 6.55804C15.4341 6.67525 15.5 6.83422 15.5 6.99998Z" fill="#1C2024"/>
</svg>
