<svg width="17" height="20" viewBox="0 0 17 20" fill="none" xmlns="http://www.w3.org/2000/svg">
<path d="M15.375 6.87524H12.625V4.81274C12.625 3.71873 12.1904 2.66952 11.4168 1.89593C10.6432 1.12234 9.59402 0.687744 8.5 0.687744C7.40598 0.687744 6.35677 1.12234 5.58318 1.89593C4.8096 2.66952 4.375 3.71873 4.375 4.81274V6.87524H1.625C1.26033 6.87524 0.910591 7.02011 0.652728 7.27797C0.394866 7.53584 0.25 7.88557 0.25 8.25024V17.8752C0.25 18.2399 0.394866 18.5897 0.652728 18.8475C0.910591 19.1054 1.26033 19.2502 1.625 19.2502H15.375C15.7397 19.2502 16.0894 19.1054 16.3473 18.8475C16.6051 18.5897 16.75 18.2399 16.75 17.8752V8.25024C16.75 7.88557 16.6051 7.53584 16.3473 7.27797C16.0894 7.02011 15.7397 6.87524 15.375 6.87524ZM8.5 14.094C8.29604 14.094 8.09666 14.0335 7.92707 13.9202C7.75748 13.8069 7.6253 13.6458 7.54725 13.4574C7.4692 13.2689 7.44877 13.0616 7.48856 12.8616C7.52836 12.6615 7.62657 12.4778 7.7708 12.3335C7.91502 12.1893 8.09877 12.0911 8.29881 12.0513C8.49886 12.0115 8.70621 12.0319 8.89464 12.11C9.08308 12.188 9.24414 12.3202 9.35745 12.4898C9.47077 12.6594 9.53125 12.8588 9.53125 13.0627C9.53125 13.3362 9.4226 13.5986 9.2292 13.7919C9.03581 13.9853 8.7735 14.094 8.5 14.094ZM11.25 6.87524H5.75V4.81274C5.75 4.0834 6.03973 3.38393 6.55546 2.8682C7.07118 2.35248 7.77065 2.06274 8.5 2.06274C9.22935 2.06274 9.92882 2.35248 10.4445 2.8682C10.9603 3.38393 11.25 4.0834 11.25 4.81274V6.87524Z" fill="#EDEEF0"/>
</svg>
