<svg width="35" height="20" viewBox="0 0 35 20" fill="none" xmlns="http://www.w3.org/2000/svg">
<path d="M0.3125 4.00024C0.3125 1.96369 1.96345 0.312744 4 0.312744H31C33.0366 0.312744 34.6875 1.96369 34.6875 4.00024V16.0002C34.6875 18.0368 33.0366 19.6877 31 19.6877H4C1.96345 19.6877 0.3125 18.0368 0.3125 16.0002V4.00024Z" fill="white"/>
<path d="M0.3125 4.00024C0.3125 1.96369 1.96345 0.312744 4 0.312744H31C33.0366 0.312744 34.6875 1.96369 34.6875 4.00024V16.0002C34.6875 18.0368 33.0366 19.6877 31 19.6877H4C1.96345 19.6877 0.3125 18.0368 0.3125 16.0002V4.00024Z" stroke="#DDDDE3" stroke-width="0.625"/>
<path d="M17.5104 14.2815C16.5163 15.1194 15.2268 15.6252 13.8177 15.6252C10.6737 15.6252 8.125 13.1068 8.125 10.0002C8.125 6.89364 10.6737 4.37524 13.8177 4.37524C15.2268 4.37524 16.5163 4.88108 17.5104 5.719C18.5044 4.88108 19.7939 4.37524 21.203 4.37524C24.347 4.37524 26.8957 6.89364 26.8957 10.0002C26.8957 13.1068 24.347 15.6252 21.203 15.6252C19.7939 15.6252 18.5044 15.1194 17.5104 14.2815Z" fill="#ED0006"/>
<path d="M17.5104 14.2815C18.7344 13.2497 19.5105 11.7145 19.5105 10.0002C19.5105 8.28594 18.7344 6.75075 17.5104 5.71903C18.5045 4.88109 19.794 4.37524 21.203 4.37524C24.347 4.37524 26.8958 6.89364 26.8958 10.0002C26.8958 13.1068 24.347 15.6252 21.203 15.6252C19.794 15.6252 18.5045 15.1194 17.5104 14.2815Z" fill="#F9A000"/>
<path d="M17.5104 14.2815C18.7343 13.2498 19.5105 11.7146 19.5105 10.0003C19.5105 8.28595 18.7343 6.75075 17.5104 5.71902C16.2864 6.75075 15.5102 8.28595 15.5102 10.0003C15.5102 11.7146 16.2864 13.2498 17.5104 14.2815Z" fill="#FF5E00"/>
</svg>
