<svg width="20" height="14" viewBox="0 0 20 14" fill="none" xmlns="http://www.w3.org/2000/svg">
<path d="M12.8492 12.2835C12.9107 12.3778 12.9456 12.487 12.9502 12.5995C12.9548 12.712 12.9289 12.8236 12.8753 12.9226C12.8217 13.0216 12.7423 13.1043 12.6456 13.1619C12.5489 13.2195 12.4384 13.2499 12.3258 13.2499H0.79924C0.686659 13.2499 0.576171 13.2195 0.479451 13.1619C0.382731 13.1043 0.303369 13.0216 0.249751 12.9226C0.196133 12.8236 0.17025 12.712 0.174835 12.5995C0.179421 12.487 0.214305 12.3778 0.275803 12.2835C1.15557 10.9293 2.44962 9.89591 3.96487 9.33745C3.12721 8.77979 2.49125 7.96736 2.15104 7.0203C1.81082 6.07325 1.78441 5.04185 2.07572 4.07862C2.36702 3.1154 2.96057 2.27149 3.76859 1.67169C4.57662 1.07189 5.55621 0.748047 6.56252 0.748047C7.56883 0.748047 8.54843 1.07189 9.35645 1.67169C10.1645 2.27149 10.758 3.1154 11.0493 4.07862C11.3406 5.04185 11.3142 6.07325 10.974 7.0203C10.6338 7.96736 9.99784 8.77979 9.16018 9.33745C10.6754 9.89591 11.9695 10.9293 12.8492 12.2835ZM19.7172 12.2718C18.8372 10.9233 17.546 9.89435 16.0352 9.33745C17.0241 8.67132 17.722 7.65339 17.9868 6.49084C18.2516 5.3283 18.0635 4.10853 17.4607 3.07981C16.8578 2.0511 15.8857 1.29076 14.742 0.953565C13.5984 0.616371 12.3692 0.727664 11.3047 1.26479C11.264 1.28581 11.2284 1.31552 11.2005 1.35182C11.1725 1.38811 11.1529 1.43011 11.143 1.47483C11.1331 1.51956 11.1331 1.56592 11.1431 1.61062C11.1531 1.65533 11.1728 1.69729 11.2008 1.73354C11.9923 2.72089 12.4469 3.93576 12.498 5.20019C12.549 6.46463 12.1938 7.71218 11.4844 8.7601C11.4385 8.82859 11.4216 8.91241 11.4373 8.99333C11.4529 9.07424 11.4999 9.1457 11.568 9.19214C12.4929 9.83766 13.2847 10.6554 13.9 11.6007C14.1482 11.9808 14.2495 12.4381 14.1852 12.8874C14.1779 12.9321 14.1805 12.9779 14.1927 13.0215C14.2048 13.0651 14.2263 13.1055 14.2557 13.14C14.285 13.1745 14.3215 13.2022 14.3626 13.2212C14.4038 13.2401 14.4485 13.25 14.4938 13.2499H19.2047C19.3423 13.25 19.4761 13.2046 19.5853 13.1208C19.6945 13.0371 19.773 12.9196 19.8086 12.7867C19.8303 12.6992 19.8334 12.6082 19.8177 12.5195C19.8019 12.4308 19.7677 12.3464 19.7172 12.2718Z" fill="#1C2024"/>
</svg>
