<svg width="14" height="12" viewBox="0 0 14 12" fill="none" xmlns="http://www.w3.org/2000/svg">
<path d="M12.3594 3.81702C12.3375 3.76233 12.3145 3.70764 12.291 3.65295C11.9382 2.83922 11.3672 2.13893 10.6411 1.62952H11.8125C11.9285 1.62952 12.0398 1.58342 12.1219 1.50138C12.2039 1.41933 12.25 1.30805 12.25 1.19202C12.25 1.07598 12.2039 0.964704 12.1219 0.882657C12.0398 0.80061 11.9285 0.754517 11.8125 0.754517H6.125C4.91537 0.756053 3.75055 1.21245 2.86184 2.03307C1.97314 2.85369 1.42555 3.97852 1.32781 5.1842C0.949901 5.27815 0.614119 5.49545 0.373618 5.80172C0.133118 6.10799 0.00164146 6.48573 0 6.87514C0 6.99117 0.0460936 7.10245 0.128141 7.1845C0.210188 7.26655 0.321468 7.31264 0.4375 7.31264C0.553532 7.31264 0.664812 7.26655 0.746859 7.1845C0.828906 7.10245 0.875 6.99117 0.875 6.87514C0.875102 6.7156 0.91882 6.55913 1.00142 6.42264C1.08403 6.28616 1.20238 6.17485 1.34367 6.10077C1.45257 7.08233 1.86186 8.00633 2.51562 8.74655L3.2025 10.6694C3.26322 10.8394 3.37508 10.9866 3.52274 11.0905C3.67039 11.1945 3.8466 11.2503 4.02719 11.2501H4.72281C4.90331 11.2502 5.0794 11.1944 5.22694 11.0904C5.37448 10.9864 5.48626 10.8393 5.54695 10.6694L5.65195 10.3751H8.78555L8.89055 10.6694C8.95124 10.8393 9.06302 10.9864 9.21056 11.0904C9.3581 11.1944 9.53419 11.2502 9.71469 11.2501H10.4103C10.5908 11.2502 10.7669 11.1944 10.9144 11.0904C11.062 10.9864 11.1738 10.8393 11.2345 10.6694L12.1209 8.18764H12.25C12.5981 8.18764 12.9319 8.04936 13.1781 7.80322C13.4242 7.55708 13.5625 7.22324 13.5625 6.87514V5.12514C13.5625 4.79595 13.4389 4.47875 13.216 4.23645C12.9932 3.99416 12.6874 3.84445 12.3594 3.81702ZM8.3125 2.93764H6.125C6.00897 2.93764 5.89769 2.89155 5.81564 2.8095C5.73359 2.72745 5.6875 2.61617 5.6875 2.50014C5.6875 2.38411 5.73359 2.27283 5.81564 2.19078C5.89769 2.10874 6.00897 2.06264 6.125 2.06264H8.3125C8.42853 2.06264 8.53981 2.10874 8.62186 2.19078C8.70391 2.27283 8.75 2.38411 8.75 2.50014C8.75 2.61617 8.70391 2.72745 8.62186 2.8095C8.53981 2.89155 8.42853 2.93764 8.3125 2.93764ZM9.84375 6.00014C9.71396 6.00014 9.58708 5.96165 9.47916 5.88954C9.37124 5.81743 9.28712 5.71494 9.23745 5.59503C9.18778 5.47511 9.17479 5.34316 9.20011 5.21586C9.22543 5.08856 9.28793 4.97163 9.37971 4.87985C9.47149 4.78807 9.58842 4.72557 9.71572 4.70025C9.84302 4.67493 9.97497 4.68793 10.0949 4.7376C10.2148 4.78727 10.3173 4.87138 10.3894 4.9793C10.4615 5.08722 10.5 5.2141 10.5 5.34389C10.5 5.51794 10.4309 5.68486 10.3078 5.80793C10.1847 5.931 10.0178 6.00014 9.84375 6.00014Z" fill="#299764"/>
</svg>
