<svg width="20" height="20" viewBox="0 0 20 20" fill="none" xmlns="http://www.w3.org/2000/svg">
<path d="M17.7492 8.1625C18.0316 8.10505 18.2854 7.95182 18.4678 7.72874C18.6501 7.50566 18.7498 7.22642 18.75 6.93828V5C18.75 4.66848 18.6183 4.35054 18.3839 4.11612C18.1495 3.8817 17.8315 3.75 17.5 3.75H2.5C2.16848 3.75 1.85054 3.8817 1.61612 4.11612C1.3817 4.35054 1.25 4.66848 1.25 5V6.93828C1.25016 7.22642 1.34986 7.50566 1.53223 7.72874C1.71459 7.95182 1.96843 8.10505 2.25078 8.1625C2.67298 8.25005 3.05209 8.48044 3.32427 8.81485C3.59644 9.14926 3.74505 9.56726 3.74505 9.99844C3.74505 10.4296 3.59644 10.8476 3.32427 11.182C3.05209 11.5164 2.67298 11.7468 2.25078 11.8344C1.9679 11.8919 1.71366 12.0456 1.53124 12.2693C1.34881 12.4931 1.24944 12.773 1.25 13.0617V15C1.25 15.3315 1.3817 15.6495 1.61612 15.8839C1.85054 16.1183 2.16848 16.25 2.5 16.25H17.5C17.8315 16.25 18.1495 16.1183 18.3839 15.8839C18.6183 15.6495 18.75 15.3315 18.75 15V13.0617C18.7498 12.7736 18.6501 12.4943 18.4678 12.2713C18.2854 12.0482 18.0316 11.8949 17.7492 11.8375C17.327 11.7499 16.9479 11.5196 16.6757 11.1851C16.4036 10.8507 16.255 10.4327 16.255 10.0016C16.255 9.57039 16.4036 9.15239 16.6757 8.81798C16.9479 8.48357 17.327 8.25318 17.7492 8.16562V8.1625ZM2.5 13.0625C3.20601 12.9187 3.84064 12.5353 4.29644 11.9773C4.75224 11.4193 5.00121 10.7209 5.00121 10.0004C5.00121 9.27988 4.75224 8.5815 4.29644 8.02349C3.84064 7.46547 3.20601 7.0821 2.5 6.93828V5H6.875V15H2.5V13.0625Z" fill="#1C2024"/>
</svg>
