<svg width="35" height="20" viewBox="0 0 35 20" fill="none" xmlns="http://www.w3.org/2000/svg">
<path d="M0.3125 4.00024C0.3125 1.96369 1.96345 0.312744 4 0.312744H31C33.0366 0.312744 34.6875 1.96369 34.6875 4.00024V16.0002C34.6875 18.0368 33.0366 19.6877 31 19.6877H4C1.96345 19.6877 0.3125 18.0368 0.3125 16.0002V4.00024Z" fill="white"/>
<path d="M0.3125 4.00024C0.3125 1.96369 1.96345 0.312744 4 0.312744H31C33.0366 0.312744 34.6875 1.96369 34.6875 4.00024V16.0002C34.6875 18.0368 33.0366 19.6877 31 19.6877H4C1.96345 19.6877 0.3125 18.0368 0.3125 16.0002V4.00024Z" stroke="#DDDDE3" stroke-width="0.625"/>
<path d="M21.5513 5.62524C22.3739 5.62524 23.0391 5.81447 23.4585 5.98586L23.1693 7.8149L22.977 7.72496C22.5922 7.55369 22.0843 7.38255 21.393 7.40063C20.5535 7.40063 20.1769 7.76987 20.1682 8.13036C20.1682 8.5269 20.6237 8.78823 21.3674 9.17578C22.5926 9.77952 23.1608 10.5183 23.1524 11.4826C23.1351 13.2398 21.6826 14.3752 19.4513 14.3752C18.4974 14.3661 17.5785 14.1585 17.0798 13.9245L17.3774 12.0231L17.6574 12.1584C18.3487 12.4741 18.8035 12.609 19.6525 12.609C20.2647 12.609 20.9211 12.3474 20.9295 11.7799C20.9295 11.4105 20.6499 11.1399 19.8272 10.7254C19.0223 10.3198 17.9461 9.64406 17.9635 8.4275C17.9726 6.77858 19.4514 5.62524 21.5513 5.62524Z" fill="#00579F"/>
<path d="M13.6236 14.249H15.75L17.0799 5.77879H14.9536L13.6236 14.249Z" fill="#00579F"/>
<path fill-rule="evenodd" clip-rule="evenodd" d="M28.9095 5.77879H27.2647C26.7575 5.77879 26.3722 5.93184 26.1533 6.48156L22.9948 14.2489H25.226C25.226 14.2489 25.5933 13.2035 25.6723 12.9783H28.4024C28.4635 13.2757 28.6561 14.2489 28.6561 14.2489H30.625L28.9095 5.77879ZM26.2847 11.2483C26.4598 10.7617 27.1337 8.87841 27.1337 8.87841C27.1301 8.88571 27.1579 8.80627 27.1993 8.68819C27.2603 8.51392 27.3509 8.25544 27.4134 8.06748L27.5621 8.79733C27.5621 8.79733 27.9647 10.8248 28.0522 11.2483H26.2847Z" fill="#00579F"/>
<path d="M9.76497 11.5547L11.8475 5.77879H14.096L10.7536 14.24H8.50495L6.59747 6.83283C7.94494 7.56304 9.1524 9.03159 9.53741 10.3833L9.76497 11.5547Z" fill="#00579F"/>
<path d="M7.83123 5.77878H4.41L4.375 5.94992C7.04377 6.65282 8.81124 8.34713 9.53742 10.3836L8.79369 6.49078C8.67124 5.9498 8.29496 5.79662 7.83123 5.77878Z" fill="#FAA61A"/>
</svg>
